<?xml version="1.0" encoding="utf-8"?>
<!-- Generator: Adobe Illustrator 16.2.1, SVG Export Plug-In . SVG Version: 6.00 Build 0)  -->
<!DOCTYPE svg PUBLIC "-//W3C//DTD SVG 1.1//EN" "http://www.w3.org/Graphics/SVG/1.1/DTD/svg11.dtd">
<svg version="1.1" id="Layer_1" xmlns="http://www.w3.org/2000/svg" xmlns:xlink="http://www.w3.org/1999/xlink" x="0px" y="0px"
	 width="100.949px" height="100.949px" viewBox="249.525 249.525 100.949 100.949"
	 enable-background="new 249.525 249.525 100.949 100.949" xml:space="preserve">
<g>
	<g>
		<line fill="none" stroke="#D6E7F7" stroke-miterlimit="10" x1="250" y1="343.8" x2="275" y2="268.8"/>
		<line fill="none" stroke="#D6E7F7" stroke-miterlimit="10" x1="350" y1="343.8" x2="325" y2="268.8"/>
		<line fill="none" stroke="#D6E7F7" stroke-miterlimit="10" x1="256.2" y1="250" x2="331.2" y2="275"/>
		<line fill="none" stroke="#D6E7F7" stroke-miterlimit="10" x1="256.2" y1="350" x2="331.2" y2="325"/>
		<line fill="none" stroke="#D6E7F7" stroke-miterlimit="10" x1="350" y1="256.2" x2="325" y2="331.2"/>
		<line fill="none" stroke="#D6E7F7" stroke-miterlimit="10" x1="250" y1="256.2" x2="275" y2="331.2"/>
		<line fill="none" stroke="#D6E7F7" stroke-miterlimit="10" x1="343.8" y1="350" x2="268.8" y2="325"/>
		<line fill="none" stroke="#D6E7F7" stroke-miterlimit="10" x1="343.8" y1="250" x2="268.8" y2="275"/>
		<line fill="none" stroke="#C0DAF3" stroke-miterlimit="10" x1="281.2" y1="275" x2="256.2" y2="343.8"/>
		<line fill="none" stroke="#C0DAF3" stroke-miterlimit="10" x1="318.8" y1="275" x2="343.8" y2="343.8"/>
		<line fill="none" stroke="#C0DAF3" stroke-miterlimit="10" x1="325" y1="281.2" x2="256.2" y2="256.2"/>
		<line fill="none" stroke="#C0DAF3" stroke-miterlimit="10" x1="325" y1="318.8" x2="256.2" y2="343.8"/>
		<line fill="none" stroke="#C0DAF3" stroke-miterlimit="10" x1="318.8" y1="325" x2="343.8" y2="256.2"/>
		<line fill="none" stroke="#C0DAF3" stroke-miterlimit="10" x1="281.2" y1="325" x2="256.2" y2="256.2"/>
		<line fill="none" stroke="#C0DAF3" stroke-miterlimit="10" x1="275" y1="318.8" x2="343.8" y2="343.8"/>
		<line fill="none" stroke="#C0DAF3" stroke-miterlimit="10" x1="275" y1="281.2" x2="343.8" y2="256.2"/>
		<line fill="none" stroke="#D6E7F7" stroke-miterlimit="10" x1="256.2" y1="250" x2="262.5" y2="268.8"/>
		<line fill="none" stroke="#D6E7F7" stroke-miterlimit="10" x1="343.8" y1="250" x2="337.5" y2="268.8"/>
		<line fill="none" stroke="#D6E7F7" stroke-miterlimit="10" x1="350" y1="256.2" x2="331.2" y2="262.5"/>
		<line fill="none" stroke="#D6E7F7" stroke-miterlimit="10" x1="350" y1="343.8" x2="331.2" y2="337.5"/>
		<line fill="none" stroke="#D6E7F7" stroke-miterlimit="10" x1="343.8" y1="350" x2="337.5" y2="331.2"/>
		<line fill="none" stroke="#D6E7F7" stroke-miterlimit="10" x1="256.2" y1="350" x2="262.5" y2="331.2"/>
		<line fill="none" stroke="#D6E7F7" stroke-miterlimit="10" x1="250" y1="343.8" x2="268.8" y2="337.5"/>
		<line fill="none" stroke="#D6E7F7" stroke-miterlimit="10" x1="250" y1="256.2" x2="268.8" y2="262.5"/>
	</g>
</g>
</svg>
